# xmcd CD database file
#
# Track frame offsets:
#	150
#	36830
#	73156
#	107158
#	134988
#	158573
#	189915
#
# Disc length: 2774 seconds
#
# Revision: 0
# Processed by: cddbd v1.5PL3 Copyright (c) Steve Scherf et al.
# Submitted via: CDex 1.51
#
DISCID=620ad407
DTITLE=Kailash  - Silverwolf
DYEAR=1900
DGENRE=New Age
TTITLE0=Karawane
TTITLE1=Toguanah
TTITLE2=Shantikala
TTITLE3=Silverwolf
TTITLE4=Chinmela
TTITLE5=Prayer
TTITLE6=Sweet Medecine
EXTD=
EXTT0=
EXTT1=
EXTT2=
EXTT3=
EXTT4=
EXTT5=
EXTT6=
PLAYORDER=
